# xmcd
#
# Track frame offsets:
# 150
# 12065
# 23972
# 35142
# 46132
# 54720
# 64587
# 75162
# 87032
# 96455
# 109510
# 119652
# 129877
# 138835
# 149165
# 162432
# 173220
# 186812
# 197992
# 212895
#
# Disc length: 3099 seconds
#
#
# Revision: 0
# Processed by: cddbd v1.5.1PL2 Copyright (c) Steve Scherf et al.
# Submitted via: FreeRIP 2.943 
#
DISCID=1a0c1914
DTITLE=Various Artist - Super Hits Country
DYEAR=2006
DGENRE=Country
TTITLE0=The End of The World ~ Skeeter Davis
TTITLE1=Take This Job and Shove It ~ Johnny Paycheck
TTITLE2=Oh Lonesome Me ~ Don Gibson
TTITLE3=Dixie Fried ~ Carl Perkins
TTITLE4=You Can't Rollerskate In A Buffalo Herd ~ Roger Miller
TTITLE5=Please Help Me, I'm Falling ~ Hank Locklin
TTITLE6=Lovesick Blues ~ Patsy Cline
TTITLE7=I Walk The Line ~ Johnny Cash
TTITLE8=The Girl Most Likely ~ Jeannie C Riley
TTITLE9=The Auctioneer ~ Leroy Van Dyke
TTITLE10=He'll Have To Go ~ Jim Reeves
TTITLE11=Let's Have A Party ~ Wanda Jackson
TTITLE12=Born A Woman ~ Sandy Posey
TTITLE13=Hello Walls ~ Faron Young
TTITLE14=Behind Closed Doors ~ Charlie Rich
TTITLE15=Singing The Blues ~ Guy Mitchell
TTITLE16=Big Bad John ~ Jimmy Dean
TTITLE17=Waterloo ~ Stonewall Jackson
TTITLE18=Sixteen Tons ~ Frankie Laine
TTITLE19=El Paso ~ Marty Robbins
EXTD=
EXTT0=
EXTT1=
EXTT2=
EXTT3=
EXTT4=
EXTT5=
EXTT6=
EXTT7=
EXTT8=
EXTT9=
EXTT10=
EXTT11=
EXTT12=
EXTT13=
EXTT14=
EXTT15=
EXTT16=
EXTT17=
EXTT18=
EXTT19=
PLAYORDER=
